<?xml version="1.0" standalone="no"?>
<!DOCTYPE svg PUBLIC "-//W3C//DTD SVG 20010904//EN"
 "http://www.w3.org/TR/2001/REC-SVG-20010904/DTD/svg10.dtd">
<svg version="1.0" xmlns="http://www.w3.org/2000/svg"
 width="700.000000pt" height="700.000000pt" viewBox="0 0 700.000000 700.000000"
 preserveAspectRatio="xMidYMid meet">
<metadata>
Created by potrace 1.11, written by Peter Selinger 2001-2013
</metadata>
<g transform="translate(0.000000,700.000000) scale(0.100000,-0.100000)"
fill="#000000" stroke="none">
<path d="M3235 6994 c-118 -9 -258 -30 -410 -59 -704 -139 -1293 -453 -1800
-960 -560 -559 -881 -1213 -1001 -2035 -21 -145 -29 -531 -15 -710 42 -525
196 -1016 469 -1495 260 -456 700 -907 1167 -1198 471 -293 922 -445 1540
-519 266 -32 666 -9 995 58 1272 256 2300 1194 2666 2432 101 340 163 782 149
1067 -25 559 -143 1028 -372 1490 -166 335 -368 616 -644 895 -301 304 -538
475 -933 675 -394 199 -827 321 -1260 355 -116 9 -450 11 -551 4z m550 -304
c978 -90 1847 -614 2391 -1441 280 -426 460 -948 505 -1468 16 -180 5 -572
-20 -736 -122 -805 -540 -1536 -1161 -2033 -495 -396 -1122 -649 -1717 -692
-414 -30 -778 2 -1134 100 -290 80 -550 190 -790 336 -818 494 -1378 1319
-1523 2244 -44 278 -47 699 -8 955 78 504 239 922 515 1335 480 717 1239 1212
2095 1365 236 42 606 57 847 35z"/>
<path d="M2841 6171 c-8 -14 -26 -20 -68 -24 -32 -3 -78 -11 -103 -16 -69 -17
-139 -31 -203 -41 -32 -6 -79 -18 -105 -29 -26 -10 -85 -31 -132 -46 -47 -14
-94 -30 -105 -35 -11 -5 -30 -12 -42 -15 -13 -4 -23 -11 -23 -16 0 -14 80 -10
125 6 120 44 305 103 340 109 22 3 63 10 90 16 28 6 80 14 118 20 66 9 68 9
110 -21 206 -146 246 -156 172 -44 -36 54 -105 124 -143 144 -18 9 -23 8 -31
-8z"/>
<path d="M2942 6181 c-17 -10 -6 -19 76 -60 35 -18 66 -39 69 -49 3 -9 15 -27
26 -39 24 -27 52 -31 43 -7 -3 9 -6 20 -6 24 0 18 -63 81 -104 104 -49 28 -87
38 -104 27z"/>
<path d="M3126 6181 c-8 -13 123 -124 139 -117 8 3 15 11 15 19 0 20 -60 74
-102 91 -43 19 -45 19 -52 7z"/>
<path d="M4316 5991 c-3 -5 -12 -37 -20 -72 -7 -35 -17 -71 -20 -80 -11 -26
22 -32 42 -8 33 41 57 60 82 65 14 3 35 10 48 15 13 5 38 9 57 9 23 0 35 5 35
14 0 15 -49 36 -86 36 -15 0 -24 6 -24 15 0 21 -24 19 -45 -5 -10 -11 -22 -20
-26 -20 -4 0 -11 9 -14 20 -7 21 -20 26 -29 11z"/>
<path d="M4433 5605 c-5 -11 -32 -83 -59 -160 -46 -133 -48 -146 -52 -265 -3
-98 -1 -129 10 -137 11 -10 13 6 10 95 -5 129 3 168 63 336 25 71 44 134 42
140 -2 6 -8 2 -14 -9z"/>
<path d="M2640 5572 c0 -4 9 -12 19 -17 37 -19 146 -89 198 -127 29 -21 57
-38 63 -38 21 0 148 -137 180 -195 18 -33 45 -80 60 -105 15 -25 31 -56 35
-70 11 -42 29 -80 37 -80 11 0 10 28 -1 34 -4 3 -11 20 -15 38 -10 48 -123
233 -184 299 -30 32 -70 68 -90 81 -20 12 -77 51 -126 85 -49 35 -94 63 -100
63 -6 0 -22 9 -36 20 -27 21 -40 25 -40 12z"/>
<path d="M5214 5418 c9 -13 25 -36 35 -53 19 -29 51 -73 118 -159 18 -22 39
-50 48 -61 40 -54 55 -70 48 -51 -4 13 -3 17 5 12 7 -4 12 -16 12 -26 0 -10
15 -38 33 -62 18 -24 50 -72 72 -108 21 -36 51 -85 67 -109 15 -24 27 -46 25
-47 -7 -8 -114 40 -146 65 -62 47 -106 70 -187 97 -44 14 -83 27 -89 28 -39 9
-108 30 -153 47 -44 16 -63 17 -117 10 -35 -5 -69 -12 -75 -16 -5 -3 -13 0
-16 9 -7 18 -22 13 -214 -72 -195 -85 -235 -106 -230 -117 9 -19 75 -3 150 36
98 50 127 51 35 0 -134 -73 -170 -97 -180 -119 -14 -32 -25 -27 -25 11 -1 37
-25 76 -39 61 -15 -14 -59 -106 -67 -137 -3 -16 -13 -31 -20 -34 -21 -8 5 -41
49 -64 43 -22 45 -19 16 20 -21 29 -21 30 -4 75 30 79 43 72 23 -14 -2 -9 14
-18 47 -26 62 -16 227 -49 320 -64 39 -7 84 -16 100 -22 17 -5 77 -13 135 -19
58 -5 141 -16 185 -23 44 -8 127 -17 185 -21 58 -3 155 -15 215 -25 126 -22
191 -27 202 -16 11 10 -18 26 -49 26 -15 0 -38 4 -51 9 -34 13 -287 45 -372
47 -38 1 -92 7 -120 14 -27 7 -90 16 -140 20 -84 7 -403 65 -413 75 -7 7 370
-4 533 -15 77 -5 181 -12 230 -16 140 -9 367 -42 406 -58 24 -11 56 -58 64
-96 4 -19 14 -48 22 -64 9 -17 13 -44 10 -65 -6 -47 -62 -234 -78 -259 -15
-24 -5 -55 17 -50 10 2 22 23 31 53 8 28 26 85 39 128 42 134 29 316 -29 420
-17 31 -26 38 -44 34 -27 -5 -36 5 -52 55 -7 20 -25 55 -42 77 -16 23 -29 44
-29 48 0 5 -36 60 -80 123 -44 63 -92 132 -105 153 -14 20 -29 37 -34 37 -18
0 -69 57 -189 213 -46 59 -88 107 -94 107 -6 0 -3 -10 6 -22z m-17 -523 c108
-35 146 -55 105 -55 -29 0 -82 -54 -82 -83 0 -18 10 -32 36 -48 32 -20 58 -24
203 -32 118 -6 176 -14 200 -25 35 -17 43 -39 13 -34 -67 12 -357 33 -622 47
-467 23 -530 27 -530 36 0 4 6 9 13 11 7 2 84 45 172 96 88 51 167 97 175 101
73 40 165 36 317 -14z m563 -226 c0 -6 -4 -7 -10 -4 -5 3 -10 11 -10 16 0 6 5
7 10 4 6 -3 10 -11 10 -16z m-1162 -46 c-10 -2 -26 -2 -35 0 -10 3 -2 5 17 5
19 0 27 -2 18 -5z"/>
<path d="M4437 5223 c-20 -32 -60 -338 -43 -321 4 3 14 48 21 100 8 51 19 122
25 157 10 59 9 84 -3 64z"/>
<path d="M2350 5170 c8 -6 47 -19 85 -30 39 -12 99 -29 135 -40 36 -10 99 -28
140 -40 109 -31 254 -81 260 -90 7 -10 102 -51 107 -46 24 24 -311 152 -497
190 -4 1 -55 17 -184 57 -16 5 -36 9 -45 9 -14 0 -14 -2 -1 -10z"/>
<path d="M1690 5080 c-69 -10 -156 -30 -195 -43 -218 -76 -384 -135 -394 -141
-35 -22 7 -62 74 -69 28 -4 73 -11 100 -16 122 -24 181 -32 344 -46 95 -8 177
-17 182 -20 4 -3 153 -13 331 -21 376 -18 634 -36 643 -46 15 -15 -72 -19
-475 -21 -280 -1 -457 2 -520 10 -52 7 -137 15 -188 18 -87 6 -94 5 -90 -12 3
-15 16 -19 83 -24 44 -4 139 -12 210 -19 88 -8 258 -10 530 -7 329 4 364 3
200 -4 -110 -5 -357 -12 -550 -17 -301 -6 -350 -9 -350 -22 0 -18 -34 -17 650
-6 329 5 500 4 520 -3 23 -8 4 -9 -75 -5 -58 3 -129 0 -160 -6 -30 -6 -136
-15 -235 -20 -99 -5 -196 -12 -215 -16 -34 -6 -35 -6 -10 -16 15 -6 123 -7
275 -4 191 5 244 3 225 -5 -14 -6 -47 -15 -75 -20 -75 -13 -245 -62 -245 -71
0 -10 49 -1 125 22 33 11 78 22 100 25 51 8 115 24 138 36 11 6 24 6 34 0 14
-7 8 -13 -30 -30 -26 -12 -47 -25 -47 -30 0 -7 -28 -13 -201 -40 -37 -6 -92
-11 -123 -11 -43 0 -56 -3 -56 -15 0 -11 -7 -14 -25 -9 -14 3 -33 3 -42 -1
-17 -7 -16 -8 2 -15 19 -8 19 -9 -2 -9 -12 -1 -25 -5 -28 -11 -3 -5 -15 -10
-26 -10 -10 0 -19 -5 -19 -11 0 -7 8 -9 23 -4 12 3 38 10 57 14 43 9 80 28 80
41 0 6 5 10 10 10 6 0 10 -6 10 -14 0 -12 7 -12 36 -5 19 6 41 8 47 6 14 -5 5
-9 -75 -32 -32 -8 -58 -20 -58 -24 0 -6 12 -6 28 -1 75 25 132 40 146 40 8 0
16 5 18 10 2 6 27 13 56 17 28 3 52 10 52 14 0 5 11 9 25 9 42 0 98 28 91 45
-3 8 0 15 7 15 7 0 33 11 58 24 63 34 109 41 134 21 l20 -17 -20 7 c-30 11
-36 10 -92 -15 -29 -12 -50 -27 -47 -32 4 -5 10 -5 17 0 7 5 26 12 42 15 17 3
41 8 55 12 17 5 22 4 15 -3 -13 -13 -185 -84 -245 -102 -25 -7 -59 -19 -75
-26 -39 -16 -222 -48 -380 -65 -127 -13 -231 -35 -185 -39 14 -1 29 -2 34 -1
22 4 170 23 241 31 127 14 196 26 260 48 33 10 94 29 135 42 67 20 154 59 245
107 38 21 136 100 152 123 10 14 10 26 2 50 -11 29 -15 31 -43 26 -40 -7 -188
-17 -158 -10 14 4 22 13 22 26 0 21 3 21 128 15 216 -11 222 0 67 125 -63 50
-115 95 -115 99 0 13 158 -89 239 -152 73 -59 101 -71 101 -45 0 17 -84 96
-141 131 -24 15 -96 61 -160 101 -107 69 -149 87 -149 65 0 -5 3 -11 8 -14 4
-2 0 -2 -8 1 -8 2 -55 15 -104 29 -49 13 -93 26 -98 29 -5 3 -57 10 -116 15
-59 5 -154 14 -212 19 -230 20 -438 21 -570 0z m545 -60 c39 -5 95 -10 125
-10 30 0 65 -3 78 -6 20 -6 15 -9 -30 -25 -55 -18 -88 -48 -88 -80 0 -61 185
-116 349 -103 82 6 110 14 157 44 19 12 27 9 81 -32 104 -81 104 -81 -22 -73
-106 6 -169 11 -435 35 -69 6 -222 15 -340 20 -299 13 -563 36 -705 61 -66 12
-126 24 -133 28 -7 4 9 14 40 25 29 11 91 33 138 51 133 50 157 56 295 70 134
14 359 12 490 -5z m755 -428 c0 -10 -58 -63 -87 -79 -29 -17 -58 -16 -72 0
-15 19 -5 26 51 33 40 5 51 12 59 30 8 22 49 35 49 16z m-365 -42 c3 -5 -1
-10 -9 -10 -9 0 -16 5 -16 10 0 6 4 10 9 10 6 0 13 -4 16 -10z m75 -30 c0 -5
-7 -10 -15 -10 -8 0 -15 5 -15 10 0 6 7 10 15 10 8 0 15 -4 15 -10z m-255
-150 c-3 -5 -12 -10 -18 -10 -7 0 -6 4 3 10 19 12 23 12 15 0z"/>
<path d="M838 5058 c-7 -47 4 -70 41 -85 20 -7 46 -19 59 -25 28 -14 75 0 80
24 2 12 -21 30 -81 62 -46 25 -87 46 -90 46 -3 0 -7 -10 -9 -22z"/>
<path d="M2930 5053 c0 -5 22 -19 50 -33 27 -14 86 -45 131 -68 44 -24 80 -39
77 -32 -2 6 -19 20 -38 30 -213 116 -220 120 -220 103z"/>
<path d="M845 4890 c-13 -21 11 -31 71 -28 55 3 57 4 33 15 -45 20 -96 26
-104 13z"/>
<path d="M1020 4714 c-8 -9 -9 -18 -4 -23 16 -14 168 -135 233 -185 88 -68
226 -138 264 -134 32 3 51 28 22 28 -34 0 -200 95 -279 160 -81 66 -191 151
-212 163 -7 4 -17 0 -24 -9z"/>
<path d="M4404 4547 c-9 -25 4 -37 44 -37 20 0 44 -5 52 -11 13 -9 12 -10 -2
-5 -21 6 -33 -26 -19 -53 6 -10 36 -33 67 -51 31 -17 114 -69 184 -116 69 -46
132 -84 138 -84 7 0 12 -4 12 -10 0 -15 21 -12 44 8 20 16 20 16 7 -1 -18 -23
-8 -33 13 -12 20 21 12 35 -20 35 -13 0 -24 4 -24 10 0 5 -7 7 -15 4 -8 -4
-23 -3 -32 0 -15 6 -15 8 -3 16 13 8 11 13 -8 32 -22 22 -24 22 -33 5 -14 -25
-42 -14 -106 39 -28 24 -56 44 -61 44 -6 0 -9 15 -8 32 1 31 -2 34 -49 49 -48
15 -50 15 -55 -4 -5 -19 -5 -19 -23 1 -16 17 -16 20 -2 25 8 4 15 13 15 22 0
19 30 19 77 0 20 -8 38 -13 41 -11 13 14 148 -73 325 -208 21 -16 40 -27 43
-24 6 7 -71 69 -156 128 -104 71 -114 79 -108 85 7 8 85 -31 113 -55 25 -22
113 -83 143 -99 47 -25 19 8 -40 47 -101 66 -117 82 -81 82 17 0 117 -64 159
-102 14 -12 24 -16 28 -9 4 6 -23 29 -60 53 -78 50 -71 54 54 38 214 -29 392
-38 392 -21 0 15 -24 19 -169 31 -74 6 -137 13 -141 15 -3 2 -65 11 -137 19
-72 8 -169 24 -214 35 -260 60 -339 71 -339 49 0 -6 -8 -3 -20 7 -17 16 -20
16 -26 2z m216 -132 c10 -12 9 -16 -4 -21 -18 -7 -49 13 -40 27 8 14 30 11 44
-6z m220 -149 c0 -3 -4 -8 -10 -11 -5 -3 -10 -1 -10 4 0 6 5 11 10 11 6 0 10
-2 10 -4z"/>
<path d="M4325 4540 c10 -17 116 -81 127 -78 6 2 -18 23 -54 46 -64 42 -85 51
-73 32z"/>
<path d="M1040 4513 c1 -4 15 -17 33 -29 18 -11 84 -56 147 -98 105 -71 199
-126 216 -126 18 0 -26 34 -75 59 -31 15 -105 62 -166 103 -122 83 -155 102
-155 91z"/>
<path d="M4650 4457 c0 -6 136 -114 158 -126 35 -18 39 -6 5 16 -15 9 -56 39
-89 65 -55 43 -74 54 -74 45z"/>
<path d="M4683 4365 c15 -14 33 -25 40 -25 7 0 -1 12 -16 25 -15 14 -33 25
-40 25 -7 0 1 -12 16 -25z"/>
<path d="M4732 4318 c5 -15 28 -18 29 -3 0 6 -7 12 -17 13 -10 3 -15 -1 -12
-10z"/>
<path d="M4975 4214 c20 -16 20 -16 -2 -31 -34 -23 -29 -55 27 -172 73 -153
74 -154 90 -159 12 -4 13 -2 4 9 -7 8 -26 48 -43 89 -18 41 -45 96 -61 122
-17 27 -30 52 -30 57 0 5 15 8 34 7 19 -2 40 1 48 5 8 6 -1 9 -26 9 l-39 0 22
24 22 24 -22 16 c-30 21 -51 20 -24 0z"/>
<path d="M3023 4174 c-3 -10 1 -30 10 -47 19 -32 13 -55 -9 -36 -8 6 -18 9
-21 5 -4 -4 -2 -10 5 -15 9 -5 9 -11 -2 -26 -12 -16 -16 -17 -30 -6 -19 16
-21 47 -3 54 6 3 -3 6 -20 6 -18 1 -33 -1 -33 -4 0 -2 14 -20 30 -39 l31 -35
-44 -25 c-51 -31 -79 -32 -127 -6 -84 45 -147 69 -136 52 8 -13 71 -46 119
-61 39 -13 45 -34 11 -39 -10 -2 -28 -8 -40 -13 -16 -8 -38 -3 -100 21 -43 18
-82 36 -85 42 -4 6 -13 8 -20 6 -7 -2 17 -21 54 -42 37 -21 64 -42 61 -48 -12
-19 -107 -3 -172 30 -68 35 -72 36 -72 23 0 -5 14 -14 30 -21 48 -20 49 -34 1
-27 -27 3 -67 23 -117 57 -42 28 -81 49 -87 47 -5 -1 14 -19 44 -37 l54 -35
-38 -3 c-29 -3 -55 6 -113 38 -42 23 -78 39 -81 36 -5 -5 56 -46 70 -46 4 0 7
-4 7 -10 0 -28 -82 -2 -146 46 -32 25 -44 29 -44 17 0 -5 23 -23 50 -42 40
-28 50 -40 50 -63 0 -15 -4 -28 -10 -28 -5 0 -39 20 -75 45 -87 59 -160 102
-152 88 6 -10 66 -53 182 -130 44 -30 52 -43 23 -43 -13 1 -41 14 -63 29 -125
91 -237 163 -242 157 -4 -3 -4 -7 -2 -9 2 -1 20 -13 39 -27 19 -13 62 -42 95
-64 33 -21 74 -50 90 -64 17 -14 45 -31 63 -39 17 -7 32 -20 32 -28 0 -8 -28
-72 -62 -142 l-63 -128 0 -104 c0 -75 4 -105 13 -108 8 -3 12 7 12 31 0 19 10
54 23 78 12 24 30 62 40 86 23 53 41 56 33 5 -10 -56 -9 -64 3 -118 7 -27 15
-66 19 -85 5 -22 14 -36 25 -38 15 -3 17 2 11 40 -3 24 -10 55 -16 71 -8 20
-6 44 8 97 18 70 29 85 41 53 3 -10 16 -45 29 -77 21 -55 22 -60 6 -72 -15
-11 -15 -13 8 -24 21 -9 32 -31 62 -128 20 -64 39 -137 43 -161 22 -159 203
-527 318 -648 30 -33 57 -43 57 -23 0 14 -26 55 -75 116 -52 63 -129 208 -184
344 -24 58 -49 119 -56 135 -7 17 -16 46 -20 65 -7 31 -6 33 9 21 9 -7 16 -19
16 -25 0 -13 57 -135 86 -184 10 -19 51 -79 89 -134 39 -55 80 -115 92 -133
12 -18 52 -66 90 -107 37 -41 82 -90 99 -109 42 -45 194 -166 258 -205 28 -16
80 -40 116 -53 36 -13 79 -29 96 -37 72 -32 136 -36 413 -31 169 3 290 9 311
16 19 7 67 19 105 27 238 51 309 77 548 198 221 112 340 191 467 312 159 151
166 159 186 213 10 28 22 51 26 51 4 0 8 -2 8 -5 0 -4 -39 -154 -60 -231 -7
-23 -29 -63 -51 -89 -44 -53 -43 -74 3 -48 31 18 88 96 88 120 0 7 11 30 25
51 13 20 35 67 48 104 14 36 32 77 41 89 13 20 16 53 16 200 0 203 7 269 26
269 9 0 14 -12 15 -32 1 -73 26 -82 52 -19 29 68 52 -33 31 -135 -8 -40 -14
-96 -12 -126 3 -45 6 -53 23 -53 33 0 76 107 82 205 2 41 9 85 15 97 13 26 5
112 -14 145 -6 13 -30 68 -53 123 -32 79 -47 104 -72 120 -27 17 -111 139
-148 215 -5 11 -13 20 -17 20 -8 0 1 -29 14 -47 6 -7 18 -28 28 -48 14 -27 15
-35 4 -35 -14 0 -47 56 -74 124 -8 22 -21 41 -28 44 -12 4 20 -84 39 -103 12
-12 12 -35 -1 -35 -6 0 -24 32 -41 70 -18 39 -36 70 -40 70 -15 0 -10 -19 21
-73 31 -56 35 -67 23 -67 -5 0 -21 24 -37 53 -49 89 -68 118 -73 113 -3 -3 11
-35 31 -71 38 -70 48 -107 22 -85 -8 6 -20 28 -27 47 -6 20 -25 56 -42 82 -38
58 -36 55 -42 49 -3 -3 6 -26 20 -52 14 -26 25 -58 25 -70 0 -39 23 -80 63
-115 33 -30 54 -32 25 -3 -9 9 -9 12 3 12 8 0 25 -20 38 -45 13 -25 28 -45 32
-45 12 0 11 17 0 24 -13 8 -33 68 -21 64 5 -2 22 -28 37 -58 15 -30 35 -56 43
-58 12 -4 13 -2 3 9 -7 7 -13 20 -13 28 0 8 -7 23 -17 33 -9 10 -12 18 -6 18
12 0 61 -70 80 -114 7 -15 13 -59 13 -98 0 -91 -15 -105 -168 -153 -64 -20
-126 -41 -137 -45 -11 -5 -36 -13 -55 -19 -19 -5 -65 -19 -102 -30 -143 -44
-208 -51 -538 -62 -373 -13 -756 -6 -915 16 -60 8 -162 22 -225 30 -227 29
-260 35 -367 60 -59 14 -115 27 -123 28 -37 5 -347 109 -384 129 -10 5 -49 21
-85 35 -36 13 -104 50 -151 81 l-86 57 -19 75 c-16 65 -22 156 -10 168 5 5
132 -66 173 -96 18 -14 36 -21 40 -17 4 4 1 10 -6 12 -7 3 -25 15 -40 27 -25
21 -49 36 -112 68 -25 12 -25 12 12 16 44 4 124 -28 186 -76 24 -18 49 -31 55
-29 6 2 -4 13 -21 26 -18 12 -32 27 -32 33 0 22 71 -2 125 -43 30 -23 58 -39
61 -36 3 3 -15 20 -40 39 -25 18 -45 36 -46 40 0 4 28 5 63 1 49 -5 71 -13
106 -40 56 -42 67 -34 15 12 -36 31 -37 34 -16 35 13 0 32 5 43 11 15 8 32 5
76 -15 68 -32 102 -34 49 -3 -21 12 -39 26 -38 31 0 5 19 16 42 23 38 13 44
13 76 -6 39 -23 54 -26 54 -11 0 6 -6 10 -13 10 -7 0 -18 5 -24 11 -9 9 -1 19
30 40 23 16 47 29 53 29 7 0 14 9 17 20 3 11 17 24 31 30 14 5 26 11 26 13 0
3 -13 21 -30 42 -16 21 -30 42 -30 46 0 5 25 9 55 9 30 0 55 5 55 10 0 6 -20
10 -44 10 -24 0 -51 3 -60 6 -10 4 -18 -1 -23 -12z m-697 -679 c26 -14 55 -25
65 -25 25 0 32 -32 33 -154 1 -125 -11 -131 -66 -31 -31 57 -98 215 -98 231 0
9 22 3 66 -21z m249 -99 c28 -12 70 -29 95 -37 56 -18 65 -40 74 -199 8 -139
3 -152 -66 -152 -25 0 -55 5 -67 11 -31 17 -81 140 -110 271 -7 30 -17 70 -21
89 -15 59 -5 60 95 17z m316 -100 c41 -14 104 -28 140 -31 99 -10 97 -6 66
-137 -71 -294 -72 -295 -133 -248 -21 17 -48 38 -59 48 -28 24 -62 83 -70 123
-4 19 -10 48 -15 64 -23 81 -31 139 -26 170 4 19 11 35 15 35 5 0 42 -11 82
-24z m2494 -107 c0 -88 -3 -111 -23 -150 -19 -38 -31 -50 -72 -67 l-50 -21
-18 27 c-40 56 -66 204 -43 240 9 15 180 83 196 78 6 -2 10 -46 10 -107z
m-2100 36 c33 -3 91 -11 129 -18 80 -14 86 -22 86 -122 0 -93 -24 -111 -159
-122 -69 -5 -78 -3 -95 16 -11 12 -25 47 -32 79 -7 31 -20 75 -28 97 -8 22
-15 50 -16 63 0 20 4 23 28 18 15 -2 54 -7 87 -11z m1820 -28 c8 -12 16 -49
17 -81 3 -63 -13 -86 -58 -86 -12 0 -29 -3 -37 -6 -15 -5 -28 34 -42 133 -6
39 -4 44 17 52 43 18 86 13 103 -12z m-1470 -23 c42 -10 133 -17 230 -19 l160
-4 3 -34 c6 -65 -15 -217 -32 -236 -13 -14 -15 -28 -10 -60 l7 -41 -48 -21
c-42 -19 -61 -21 -144 -16 -54 3 -125 15 -163 27 -57 18 -67 24 -72 48 -13 64
-26 194 -28 280 -3 105 -10 100 97 76z m1273 -55 c2 -36 -3 -83 -10 -104 -11
-34 -22 -44 -78 -72 -93 -48 -112 -45 -139 18 -15 38 -21 73 -21 129 l0 78 98
7 c53 3 104 8 112 9 30 7 35 -2 38 -65z m-303 -16 c13 -122 15 -115 -39 -144
l-49 -27 -28 33 c-16 18 -29 38 -29 44 0 6 -4 19 -9 29 -26 50 -43 103 -38
116 5 13 24 16 95 16 l89 0 8 -67z m-227 -59 c2 -99 0 -116 -22 -167 -28 -62
-36 -68 -119 -87 -65 -15 -74 -11 -87 41 -5 19 -16 59 -24 89 -19 68 -22 226
-3 234 6 2 66 4 132 3 l120 -2 3 -111z m112 -680 c30 -34 30 -37 14 -55 -9
-11 -34 -24 -55 -29 -21 -6 -41 -15 -45 -21 -11 -18 -24 12 -24 58 0 31 6 48
22 63 31 29 51 25 88 -16z m-209 -41 c32 -31 59 -61 59 -69 0 -14 -114 -52
-183 -62 l-39 -5 7 59 c18 159 50 175 156 77z m-718 -11 c29 -30 67 -117 67
-152 0 -26 -41 -36 -90 -21 -20 6 -53 11 -73 11 -67 0 -83 42 -47 124 30 71
95 88 143 38z m225 -36 c46 -42 78 -97 69 -120 -5 -13 -22 -16 -97 -16 l-90 0
0 30 c0 41 45 140 64 140 9 0 33 -16 54 -34z m-467 14 c10 -6 26 -24 34 -40
16 -31 20 -80 7 -80 -10 0 -113 38 -120 44 -9 10 31 86 45 86 8 0 23 -5 34
-10z m728 -56 c17 -14 31 -31 31 -38 0 -10 -110 -56 -133 -56 -9 0 -16 43 -10
70 10 51 66 63 112 24z"/>
<path d="M1370 4137 c19 -17 183 -145 235 -183 24 -17 34 -21 25 -10 -15 19
-165 141 -227 184 -34 24 -56 30 -33 9z"/>
<path d="M5065 4130 c-3 -5 1 -10 7 -13 7 -2 9 -8 5 -13 -4 -4 -17 -3 -27 4
-11 7 -25 12 -32 11 -7 0 9 -11 36 -24 32 -16 54 -22 64 -16 9 5 27 5 41 1 14
-5 60 -18 101 -31 41 -13 84 -29 95 -36 22 -15 69 -18 61 -4 -3 5 -18 12 -33
16 -16 3 -41 12 -58 20 -45 19 -85 33 -135 46 -25 6 -62 19 -82 29 -21 10 -40
14 -43 10z"/>
<path d="M1490 4111 c0 -8 48 -47 124 -101 12 -8 55 -42 96 -75 94 -75 160
-118 168 -110 4 4 -2 12 -13 18 -43 25 -56 34 -135 97 -169 133 -240 184 -240
171z"/>
<path d="M1656 4081 c14 -14 203 -162 266 -210 32 -24 62 -41 68 -39 6 2 -26
30 -72 63 -46 32 -108 79 -138 105 -64 53 -116 90 -127 90 -4 0 -3 -4 3 -9z"/>
<path d="M2805 4066 c25 -21 89 -38 123 -34 26 3 -1 13 -118 43 -24 6 -24 6
-5 -9z"/>
<path d="M5050 4059 c0 -9 23 -57 50 -107 28 -50 50 -98 50 -107 0 -23 28 -85
38 -85 15 0 -16 89 -65 185 -57 111 -73 136 -73 114z"/>
<path d="M5120 4034 c0 -7 17 -47 38 -90 22 -44 54 -109 72 -146 18 -37 36
-65 41 -63 4 3 -4 29 -19 58 -15 28 -44 88 -64 132 -38 82 -67 129 -68 109z"/>
<path d="M5730 3991 c0 -8 19 -48 41 -90 47 -86 47 -86 54 -79 6 5 -56 133
-79 163 -11 14 -15 16 -16 6z"/>
<path d="M5653 3928 c13 -24 41 -73 61 -110 20 -36 43 -72 52 -78 23 -20 30
-2 7 19 -11 11 -44 62 -72 115 -28 53 -56 96 -62 96 -6 0 0 -19 14 -42z"/>
<path d="M5610 3942 c0 -21 123 -258 127 -245 2 6 -21 60 -51 120 -63 124 -76
144 -76 125z"/>
<path d="M5570 3907 c0 -38 110 -217 133 -217 5 0 -2 15 -15 33 -14 17 -37 56
-52 85 -43 85 -66 119 -66 99z"/>
<path d="M1675 3900 c3 -5 8 -10 11 -10 2 0 4 5 4 10 0 6 -5 10 -11 10 -5 0
-7 -4 -4 -10z"/>
<path d="M5520 3902 c0 -17 108 -230 121 -237 17 -11 25 6 9 18 -9 7 -22 28
-30 47 -18 45 -79 162 -91 175 -6 5 -9 5 -9 -3z"/>
<path d="M5485 3861 c9 -30 72 -138 85 -146 6 -4 -8 29 -31 72 -44 84 -66 115
-54 74z"/>
<path d="M2180 3820 c28 -22 40 -25 40 -10 0 11 -33 30 -52 30 -7 0 -2 -9 12
-20z"/>
<path d="M4824 2286 c-3 -9 -1 -23 6 -31 17 -20 -11 -63 -97 -147 -82 -80
-187 -145 -318 -198 -31 -12 -195 -57 -251 -69 -128 -26 -416 -22 -564 7 -25
5 -85 17 -135 26 -208 40 -262 62 -430 174 -155 104 -183 118 -199 102 -14
-15 1 -27 177 -141 153 -100 222 -130 353 -154 163 -30 179 -34 214 -45 52
-17 387 -24 520 -11 110 10 295 58 404 105 97 41 204 113 274 185 79 82 101
128 85 177 -11 33 -30 42 -39 20z"/>
<path d="M4947 2068 c-2 -7 -1 -20 3 -28 4 -8 15 -46 24 -85 9 -38 20 -86 26
-105 46 -175 48 -205 32 -335 -19 -140 -27 -167 -124 -396 -23 -54 -130 -199
-147 -199 -5 0 -29 -19 -55 -41 -60 -53 -96 -61 -276 -64 -183 -3 -489 37
-615 81 -27 9 -66 21 -85 25 -40 8 -135 34 -195 51 -42 12 -70 23 -200 81
-137 60 -150 66 -165 76 -14 10 -201 98 -268 127 -29 13 -33 13 -39 -1 -7 -20
20 -40 112 -81 120 -53 369 -175 385 -188 8 -7 53 -23 100 -36 47 -13 139 -40
204 -62 66 -21 126 -38 134 -38 8 0 62 -12 121 -26 58 -14 135 -32 171 -41
117 -28 400 -22 566 12 42 9 191 138 238 207 20 29 55 78 76 108 22 30 40 59
40 64 0 5 18 37 39 71 22 34 58 101 82 150 l42 88 15 199 c8 109 12 201 8 205
-18 18 -29 -27 -37 -149 -5 -73 -14 -158 -19 -188 -11 -61 -49 -160 -62 -160
-9 0 -3 55 13 106 11 37 30 330 22 350 -13 35 -23 7 -23 -67 0 -44 -4 -78 -8
-75 -5 3 -19 49 -31 103 -44 192 -69 273 -86 273 -7 0 -15 -6 -18 -12z m119
-724 c-3 -9 -6 -18 -6 -20 0 -3 -4 -3 -10 1 -11 7 -2 35 12 35 6 0 7 -7 4 -16z"/>
<path d="M2140 1820 c0 -42 104 -187 261 -365 164 -185 253 -265 429 -385 44
-30 106 -74 136 -98 31 -23 79 -52 105 -65 27 -12 49 -25 49 -29 0 -5 5 -8 11
-8 6 0 37 -13 69 -29 31 -16 73 -34 91 -39 19 -6 59 -20 89 -32 113 -44 157
-57 213 -64 38 -5 57 -4 57 3 0 6 -1 11 -3 11 -1 0 -47 16 -102 36 -55 19
-134 46 -175 60 -41 14 -102 39 -135 56 -130 65 -186 96 -204 112 -9 9 -21 16
-25 16 -4 0 -30 17 -59 38 -29 20 -60 42 -68 47 -22 14 -194 147 -250 192 -95
79 -298 314 -384 445 -44 68 -76 108 -87 108 -10 0 -18 -5 -18 -10z"/>
<path d="M5287 1764 c-3 -5 -8 -39 -12 -74 -14 -136 -113 -469 -172 -580 -29
-55 -142 -234 -189 -299 -29 -41 -30 -51 -6 -51 23 0 51 31 87 95 16 28 36 59
46 70 39 46 130 227 163 325 67 203 85 276 95 379 9 94 3 159 -12 135z"/>
<path d="M2134 1604 c21 -88 31 -109 77 -166 82 -104 207 -236 332 -353 160
-149 306 -273 330 -281 63 -20 4 46 -198 218 -214 183 -469 463 -509 560 -20
48 -42 62 -32 22z"/>
</g>
</svg>
